<?xml version="1.0" standalone="no"?>
<!DOCTYPE svg PUBLIC "-//W3C//DTD SVG 20010904//EN"
 "http://www.w3.org/TR/2001/REC-SVG-20010904/DTD/svg10.dtd">
<svg version="1.0" xmlns="http://www.w3.org/2000/svg"
 width="700.000000pt" height="700.000000pt" viewBox="0 0 700.000000 700.000000"
 preserveAspectRatio="xMidYMid meet">
<metadata>
Created by potrace 1.11, written by Peter Selinger 2001-2013
</metadata>
<g transform="translate(0.000000,700.000000) scale(0.100000,-0.100000)"
fill="#000000" stroke="none">
<path d="M3635 6858 c-106 -54 -224 -159 -579 -514 -418 -418 -682 -728 -663
-778 9 -22 118 -56 907 -280 300 -86 559 -160 575 -165 17 -5 107 -30 200 -56
94 -26 211 -58 260 -72 50 -14 97 -26 105 -28 27 -6 341 -93 635 -175 160 -45
299 -84 310 -87 93 -25 422 -121 510 -149 139 -44 169 -47 173 -17 7 48 -124
210 -373 458 -77 77 -151 149 -165 160 -14 11 -46 36 -70 55 -167 133 -409
244 -693 320 -87 23 -442 102 -657 146 -14 3 -59 14 -100 26 -41 11 -100 26
-130 34 -186 49 -365 123 -375 154 -14 45 139 213 365 401 194 160 240 212
240 270 0 39 -49 107 -138 190 -151 142 -223 165 -337 107z"/>
<path d="M1960 5001 c0 -39 113 -497 255 -1031 20 -74 37 -142 39 -150 2 -8
16 -60 31 -115 14 -55 38 -143 51 -195 46 -171 81 -303 107 -400 14 -52 53
-196 87 -320 33 -124 62 -232 64 -240 2 -9 25 -92 51 -185 26 -94 60 -219 76
-280 16 -60 38 -141 48 -180 11 -38 26 -95 34 -125 8 -30 40 -147 72 -260 31
-113 94 -343 140 -511 46 -168 88 -317 93 -330 5 -13 10 -26 10 -29 0 -9 22
-90 84 -305 33 -116 66 -235 75 -265 23 -88 29 -90 109 -28 60 45 87 68 138
113 149 132 194 172 206 185 8 8 42 40 75 70 184 169 532 500 823 785 414 405
1469 1467 1647 1660 21 22 88 92 149 155 91 95 180 189 361 384 64 68 155 181
152 189 -7 21 -313 112 -1037 308 -134 37 -310 85 -360 99 -59 17 -317 85
-465 124 -77 20 -153 41 -170 46 -16 5 -84 23 -150 40 -66 18 -178 47 -250 67
-71 19 -137 36 -145 38 -27 7 -273 73 -352 94 -301 81 -528 144 -553 152 -36
11 -423 120 -445 124 -15 4 -306 88 -435 126 -291 87 -436 135 -493 165 -64
33 -122 44 -122 25z m1195 -956 c189 -39 809 -198 1090 -280 28 -8 149 -43
270 -76 121 -34 267 -75 325 -91 122 -34 278 -77 300 -83 8 -2 105 -29 215
-60 110 -31 223 -63 250 -70 111 -29 280 -77 283 -80 2 -2 -296 -301 -661
-666 -771 -771 -1078 -1072 -1297 -1273 -41 -38 -95 -88 -120 -111 -66 -61
-159 -135 -170 -135 -21 0 -94 197 -175 470 -20 69 -38 132 -40 141 -2 9 -12
47 -24 85 -11 38 -48 177 -81 309 -34 132 -88 339 -120 460 -79 296 -106 400
-140 530 -16 61 -36 137 -45 170 -9 33 -31 119 -50 190 -19 72 -55 202 -80
290 -61 214 -61 270 0 296 28 13 173 4 270 -16z"/>
<path d="M1300 4549 c-25 -18 -47 -35 -50 -38 -3 -3 -48 -44 -100 -91 -127
-114 -300 -282 -558 -540 -274 -275 -363 -372 -480 -525 -21 -27 -55 -112 -59
-145 -5 -42 20 -109 56 -150 172 -194 246 -237 339 -193 46 22 235 209 347
344 64 77 192 226 205 239 9 8 29 32 44 53 16 21 30 36 32 34 2 -2 11 -39 20
-83 8 -43 31 -153 49 -244 19 -91 36 -176 39 -190 2 -14 15 -79 29 -145 14
-66 29 -136 32 -155 3 -19 8 -42 10 -50 2 -8 6 -26 9 -40 16 -93 63 -275 108
-425 28 -92 101 -286 116 -310 4 -5 7 -12 7 -15 4 -31 131 -245 205 -345 156
-211 414 -468 569 -567 78 -49 85 -37 50 78 -20 68 -29 98 -68 244 -12 41 -32
116 -46 166 -14 50 -27 100 -30 110 -2 10 -26 102 -54 204 -202 736 -284 1039
-366 1350 -143 542 -319 1175 -387 1388 l-23 74 -45 -33z"/>
</g>
</svg>
