<svg
xmlns="http://www.w3.org/2000/svg"
viewBox="0 0 50 50"
>
<path fill="none" d="M-1-1h802v602H-1z" />
<path d="M21.5 5c-2.7 2.7-4.7 5.1-4.4 5.3.2.2 5.6 1.7 11.9 3.5 6.3 1.7 12.4 3.4 13.5 3.8 1.5.5 1.1-.2-1.4-2.9-2.7-2.8-4.6-3.8-9.7-4.8-3.5-.7-6.4-1.6-6.4-2 0-.4 1.1-1.6 2.5-2.7 2.3-1.9 2.4-2 .7-3.6C26.5.1 26.1.4 21.5 5zM14 14.3c0 1.1 9.3 35.2 9.6 35.7.3.2 6.3-5.4 13.4-12.5 7.1-7.1 12.8-13.1 12.6-13.2-.2-.2-7.8-2.3-16.9-4.7-9.1-2.4-17-4.7-17.6-5-.6-.4-1.1-.5-1.1-.3zm20.3 19.9C30 38.5 26.3 42 26 42c-.3 0-1.5-3.9-2.7-8.8-1.3-4.8-2.5-9.6-2.9-10.8-.5-2.1-.3-2.1 10.6.9l11.1 3.1-7.8 7.8zM4.5 22c-4.6 4.6-4.8 5.1-3.3 6.6 1.5 1.6 1.8 1.5 4.1-1.1l2.4-2.8L9 31.1c1 4.8 2.2 7.2 4.8 9.9 1.9 1.9 3.2 2.8 2.9 2-.3-.9-1.9-7-3.7-13.5-1.7-6.6-3.3-12.1-3.4-12.2-.1-.1-2.4 2-5.1 4.7z" />
</svg>
