<?xml version="1.0" standalone="no"?>
<!DOCTYPE svg PUBLIC "-//W3C//DTD SVG 20010904//EN"
 "http://www.w3.org/TR/2001/REC-SVG-20010904/DTD/svg10.dtd">
<svg version="1.0" xmlns="http://www.w3.org/2000/svg"
 width="700.000000pt" height="700.000000pt" viewBox="0 0 700.000000 700.000000"
 preserveAspectRatio="xMidYMid meet">
<metadata>
Created by potrace 1.14, written by Peter Selinger 2001-2017
</metadata>
<g transform="translate(0.000000,700.000000) scale(0.100000,-0.100000)"
fill="#000000" stroke="none">
<path d="M3633 6857 c-59 -31 -56 -29 -158 -113 -148 -122 -604 -577 -820
-818 -159 -179 -272 -333 -262 -360 6 -15 317 -119 456 -152 9 -2 250 -71 536
-153 286 -82 594 -169 685 -195 267 -74 354 -98 370 -101 97 -21 1283 -356
1450 -410 144 -46 180 -49 180 -14 0 49 -132 210 -370 450 -148 149 -231 218
-360 301 -222 142 -432 214 -945 323 -143 31 -268 58 -279 60 -43 10 -225 58
-276 73 -30 8 -59 17 -65 18 -5 1 -50 16 -100 34 -109 39 -163 68 -170 91 -9
28 40 96 144 200 88 87 129 124 277 244 27 22 77 68 111 102 108 108 97 160
-64 313 -152 143 -227 167 -340 107z"/>
<path d="M1960 5001 c0 -39 113 -497 255 -1031 20 -74 37 -142 39 -150 2 -8
16 -60 31 -115 14 -55 38 -143 51 -195 34 -128 77 -289 102 -380 11 -41 57
-212 102 -380 44 -168 99 -368 120 -445 22 -77 64 -232 94 -345 31 -113 65
-236 75 -275 38 -135 111 -402 176 -640 37 -132 73 -265 82 -295 9 -30 18 -61
20 -68 1 -6 4 -18 6 -25 10 -34 83 -293 163 -572 27 -94 32 -96 106 -39 69 54
146 120 332 289 16 14 266 246 292 270 572 538 2063 2029 2496 2496 18 19 87
93 153 164 66 70 125 133 130 139 63 67 155 181 152 189 -4 13 -94 44 -342
115 -208 61 -535 151 -565 157 -8 2 -62 16 -120 33 -58 16 -159 44 -225 62
-66 17 -133 36 -150 41 -16 5 -82 23 -145 39 -63 17 -131 34 -150 40 -19 6
-87 24 -150 40 -63 16 -131 34 -150 40 -19 6 -222 60 -450 120 -228 60 -431
114 -450 120 -19 6 -177 49 -350 97 -173 47 -344 94 -380 103 -36 10 -159 45
-275 78 -634 182 -912 267 -935 287 -37 32 -140 59 -140 36z m1135 -944 c11
-3 36 -7 55 -11 63 -11 73 -13 281 -65 114 -28 339 -87 500 -132 162 -44 312
-85 334 -91 22 -5 85 -22 140 -38 55 -15 208 -58 340 -95 132 -37 260 -72 285
-80 25 -7 63 -18 85 -24 50 -14 485 -135 580 -161 39 -11 99 -28 134 -38 l64
-18 -715 -715 c-770 -768 -967 -962 -1265 -1241 -97 -90 -261 -228 -272 -228
-22 0 -95 195 -176 470 -20 69 -38 132 -40 140 -2 8 -13 49 -25 90 -12 41 -48
181 -81 310 -33 129 -96 368 -139 530 -43 162 -95 356 -114 430 -19 74 -42
162 -51 195 -9 33 -31 119 -50 190 -19 72 -55 202 -80 290 -61 214 -61 270 0
296 18 8 163 5 210 -4z"/>
<path d="M1300 4549 c-25 -18 -67 -53 -95 -78 -233 -215 -323 -302 -603 -581
-419 -419 -536 -564 -549 -682 -7 -60 32 -129 130 -227 130 -130 183 -153 265
-114 52 24 212 187 388 393 82 96 156 182 164 190 9 8 29 32 44 53 16 21 31
36 33 34 2 -2 12 -49 23 -103 38 -195 171 -841 191 -929 96 -419 222 -718 411
-973 158 -214 425 -477 578 -571 66 -40 73 -27 39 85 -20 68 -29 98 -68 244
-12 41 -32 116 -46 166 -14 50 -27 100 -29 110 -3 10 -27 102 -55 204 -28 102
-69 250 -90 330 -22 80 -78 285 -125 455 -46 171 -114 425 -151 565 -129 490
-322 1184 -387 1388 l-23 74 -45 -33z"/>
</g>
</svg>
