<svg viewBox="0 0 50 50" width="50" xmlns="http://www.w3.org/2000/svg" preserveAspectRatio="xMidYMid meet">
  <g>
    <title>Devools</title>
    <rect fill="none" id="logo" height="602" width="802" y="-1" x="-1"/>
  </g>
  <g>
    <title>Layer 1</title>
    <g id="svg_1" transform="translate(0,51) scale(0.10000000149011612,-0.10000000149011612) ">
      <path id="svg_2" d="m215,460c-27,-27 -47,-51 -44,-53c2,-2 56,-17 119,-35c63,-17 124,-34 135,-38c15,-5 11,2 -14,29c-27,28 -46,38 -97,48c-35,7 -64,16 -64,20c0,4 11,16 25,27c23,19 24,20 7,36c-17,15 -21,12 -67,-34z"/>
      <path id="svg_3" d="m140,367c0,-11 93,-352 96,-357c3,-2 63,54 134,125c71,71 128,131 126,132c-2,2 -78,23 -169,47c-91,24 -170,47 -176,50c-6,4 -11,5 -11,3zm203,-199c-43,-43 -80,-78 -83,-78c-3,0 -15,39 -27,88c-13,48 -25,96 -29,108c-5,21 -3,21 106,-9l111,-31l-78,-78z"/>
      <path id="svg_4" d="m45,290c-46,-46 -48,-51 -33,-66c15,-16 18,-15 41,11l24,28l13,-64c10,-48 22,-72 48,-99c19,-19 32,-28 29,-20c-3,9 -19,70 -37,135c-17,66 -33,121 -34,122c-1,1 -24,-20 -51,-47z"/>
    </g>
  </g>
</svg>
